<?xml version="1.0" standalone="no"?>
<svg xmlns:xlink="http://www.w3.org/1999/xlink" id="wave" style="transform:rotate(0deg); transition: 0.3s" viewBox="0 0 1440 170" version="1.1" xmlns="http://www.w3.org/2000/svg"><defs><linearGradient id="sw-gradient-0" x1="0" x2="0" y1="1" y2="0"><stop stop-color="rgba(31, 31, 56, 1)" offset="0%"/><stop stop-color="rgba(31, 31, 56, 1)" offset="100%"/></linearGradient></defs><path style="transform:translate(0, 0px); opacity:1" fill="url(#sw-gradient-0)" d="M0,34L48,53.8C96,74,192,113,288,133.2C384,153,480,153,576,141.7C672,130,768,108,864,93.5C960,79,1056,74,1152,85C1248,96,1344,125,1440,113.3C1536,102,1632,51,1728,39.7C1824,28,1920,57,2016,70.8C2112,85,2208,85,2304,96.3C2400,108,2496,130,2592,133.2C2688,136,2784,119,2880,102C2976,85,3072,68,3168,51C3264,34,3360,17,3456,34C3552,51,3648,102,3744,119C3840,136,3936,119,4032,116.2C4128,113,4224,125,4320,107.7C4416,91,4512,45,4608,34C4704,23,4800,45,4896,53.8C4992,62,5088,57,5184,68C5280,79,5376,108,5472,121.8C5568,136,5664,136,5760,136C5856,136,5952,136,6048,121.8C6144,108,6240,79,6336,73.7C6432,68,6528,85,6624,79.3C6720,74,6816,45,6864,31.2L6912,17L6912,170L6864,170C6816,170,6720,170,6624,170C6528,170,6432,170,6336,170C6240,170,6144,170,6048,170C5952,170,5856,170,5760,170C5664,170,5568,170,5472,170C5376,170,5280,170,5184,170C5088,170,4992,170,4896,170C4800,170,4704,170,4608,170C4512,170,4416,170,4320,170C4224,170,4128,170,4032,170C3936,170,3840,170,3744,170C3648,170,3552,170,3456,170C3360,170,3264,170,3168,170C3072,170,2976,170,2880,170C2784,170,2688,170,2592,170C2496,170,2400,170,2304,170C2208,170,2112,170,2016,170C1920,170,1824,170,1728,170C1632,170,1536,170,1440,170C1344,170,1248,170,1152,170C1056,170,960,170,864,170C768,170,672,170,576,170C480,170,384,170,288,170C192,170,96,170,48,170L0,170Z"/></svg>